<?xml version="1.0" encoding="UTF-8" standalone="no"?>
<!-- Generator: Adobe Illustrator 16.0.0, SVG Export Plug-In . SVG Version: 6.00 Build 0)  -->

<svg
   xmlns:dc="http://purl.org/dc/elements/1.1/"
   xmlns:cc="http://creativecommons.org/ns#"
   xmlns:rdf="http://www.w3.org/1999/02/22-rdf-syntax-ns#"
   xmlns:svg="http://www.w3.org/2000/svg"
   xmlns="http://www.w3.org/2000/svg"
   xmlns:sodipodi="http://sodipodi.sourceforge.net/DTD/sodipodi-0.dtd"
   xmlns:inkscape="http://www.inkscape.org/namespaces/inkscape"
   version="1.1"
   id="Capa_1"
   x="0px"
   y="0px"
   width="312px"
   height="74px"
   viewBox="-41.5 6 312 74"
   enable-background="new -41.5 6 312 74"
   xml:space="preserve"
   inkscape:version="0.48.4 r9939"
   sodipodi:docname="logo_gravity_footer.svg"><metadata
     id="metadata11"><rdf:RDF><cc:Work
         rdf:about=""><dc:format>image/svg+xml</dc:format><dc:type
           rdf:resource="http://purl.org/dc/dcmitype/StillImage" /><dc:title></dc:title></cc:Work></rdf:RDF></metadata><defs
     id="defs9" /><sodipodi:namedview
     pagecolor="#ffffff"
     bordercolor="#666666"
     borderopacity="1"
     objecttolerance="10"
     gridtolerance="10"
     guidetolerance="10"
     inkscape:pageopacity="0"
     inkscape:pageshadow="2"
     inkscape:window-width="1366"
     inkscape:window-height="744"
     id="namedview7"
     showgrid="false"
     inkscape:zoom="2.6602564"
     inkscape:cx="156"
     inkscape:cy="37"
     inkscape:window-x="0"
     inkscape:window-y="336"
     inkscape:window-maximized="1"
     inkscape:current-layer="Capa_1" /><g
     id="g3"
     style="fill:#192d50;fill-opacity:1"><path
       fill-rule="evenodd"
       clip-rule="evenodd"
       fill="#FFFFFF"
       d="M261.55,31.55v2.601h-0.3v-2.2l-0.95,2.2H260L259.1,32v2.15h-0.35   V31.55h0.45l0.95,2.101l0.949-2.101H261.55z M258.4,31.85h-0.9v2.301h-0.35V31.85H256.3v-0.3h2.101V31.85z M183.95,24.05   c1.767,0,3.283,0.417,4.55,1.25c1.267,0.867,1.9,1.9,1.9,3.101c0,0.433-0.051,0.833-0.15,1.199c-0.3,0.801-0.5,1.351-0.6,1.65   c-2.268,5.9-4.801,12.816-7.601,20.75c-0.267,0.7-0.517,1.366-0.75,2H171.15c-0.601-0.066-1.268-0.1-2-0.1   c1.133-3.4,2.55-7.534,4.25-12.4c1.066-3,1.916-5.417,2.55-7.25c5.866,1.866,10.233,0.833,13.1-3.1c-0.167,0.1-0.35,0.199-0.55,0.3   c-1.267,0.866-2.783,1.3-4.55,1.3c-1.8,0-3.333-0.434-4.601-1.3c-1.266-0.8-1.899-1.816-1.899-3.05c0-1.2,0.634-2.233,1.899-3.101   C180.617,24.467,182.15,24.05,183.95,24.05z M192.6,31.6c5.667-0.3,10.351-2.733,14.051-7.3h6.949L210.7,31.65h6.149   c-0.033,0.166-0.1,0.316-0.199,0.449c-0.5,1.301-0.934,2.434-1.301,3.4c0,0.033-0.017,0.083-0.05,0.15h-6.2   c-0.066,0.199-0.133,0.383-0.199,0.55c0,0.033-0.017,0.083-0.051,0.149c-0.033,0.134-0.066,0.267-0.1,0.4   c-0.8,2.366-1.3,3.85-1.5,4.45c-0.533,1.666-0.967,3.033-1.3,4.1c-1.5,3.967,0.6,5.45,6.3,4.45h0.4   c-15.601,7.866-21.984,6.333-19.15-4.6c0.334-1.134,0.8-2.5,1.4-4.101c0.399-1.166,0.934-2.733,1.6-4.7   c0.033-0.066,0.066-0.133,0.1-0.199c0.033-0.167,0.084-0.334,0.15-0.5H191l1.55-4.051H192.6z M230.55,31.7V45.85   c0.066-0.066,0.134-0.116,0.2-0.149c0.033,0,0.15-0.15,0.35-0.45c1.167-1.4,4.834-5.934,11-13.6c3.2-0.034,7.534-0.051,13-0.051   l-1.35,1.5c-0.333,0.367-0.533,0.584-0.6,0.65c-0.134,0.134-0.267,0.267-0.4,0.4c-8.2,8.833-14.017,15.199-17.45,19.1   c-0.934,1.134-1.883,2.184-2.85,3.15c-5.533,6.933-12.05,9.483-19.55,7.649c-0.5-0.1-1.034-0.233-1.601-0.399   c-1.2-0.434-2.483-1.051-3.85-1.851c7.7,1.2,11.983-0.833,12.85-6.1c0.3-1.733,0.316-3.983,0.05-6.75L218.95,31.7H230.55z    M-17.5,23.05c1.533-1.166,3.033-2.116,4.5-2.85c3.767-1.867,7.35-2.634,10.75-2.3C1.417,18.3,4.333,19.767,6.5,22.3v0.351   c-1.533-1.467-3.483-2.317-5.85-2.551c-4.1-0.433-8.267,1.167-12.5,4.801c-4.2,3.666-7.2,8.283-9,13.85   c-1.8,5.566-1.867,10.467-0.2,14.7c1.633,4.267,4.517,6.6,8.65,7c2.633,0.233,5.267-0.316,7.9-1.65v0.351   c-3.967,2.433-8,3.433-12.1,3c-2.733-0.301-5.117-1.217-7.15-2.75c-1.533-1.267-2.8-2.95-3.8-5.051   c-2.233-4.699-2.367-10.1-0.4-16.199C-25.95,32.083-22.467,27.05-17.5,23.05z M-12.15,31.75c0.767-0.566,1.5-1.033,2.2-1.4   c1.8-0.866,3.517-1.233,5.15-1.1c2.333,0.267,4.05,1.4,5.15,3.4c-0.833-1.367-2.067-2.134-3.7-2.301   c-2-0.199-4.033,0.567-6.1,2.301c-2,1.767-3.45,3.983-4.35,6.649c-0.833,2.7-0.867,5.05-0.1,7.05c0.8,2.067,2.2,3.2,4.2,3.4   c1.667,0.134,3.35-0.384,5.05-1.55v0.1c-2.333,1.767-4.7,2.517-7.1,2.25c-1.3-0.133-2.45-0.566-3.45-1.3   c-0.733-0.634-1.333-1.45-1.8-2.45c-1.1-2.267-1.183-4.866-0.25-7.8C-16.283,36.066-14.583,33.65-12.15,31.75z M-11.75,29.55v-0.1   c3.6-2.733,7.217-3.9,10.85-3.5c2.033,0.2,3.8,0.883,5.3,2.05c1.167,0.934,2.1,2.184,2.8,3.75c1.633,3.434,1.733,7.384,0.3,11.85   c-1.467,4.534-4.05,8.25-7.75,11.15c-1.133,0.866-2.233,1.583-3.3,2.15C-6.35,58.267-9,58.833-11.5,58.6   c-3.567-0.399-6.2-2.149-7.9-5.25c1.267,2.134,3.167,3.317,5.7,3.551c3.067,0.333,6.167-0.834,9.3-3.5   c3.1-2.7,5.316-6.117,6.65-10.25c1.333-4.067,1.383-7.667,0.15-10.801c-1.2-3.133-3.333-4.833-6.4-5.1   C-6.533,26.983-9.117,27.75-11.75,29.55z M-14.85,19.75V19.5c6.3-4.233,12.7-6.033,19.2-5.4c3.8,0.334,7.117,1.534,9.95,3.601   c2.167,1.666,3.934,3.85,5.3,6.55c3.167,6.1,3.433,13.116,0.8,21.05C17.733,53.233,12.933,59.8,6,65   c-2.033,1.5-4.067,2.767-6.1,3.8c-5.2,2.367-10.183,3.334-14.95,2.9c-5.467-0.533-9.767-2.684-12.9-6.45V64.9   c2.267,2.267,5.2,3.583,8.8,3.949c5.767,0.534,11.55-1.566,17.35-6.3c5.8-4.767,9.917-10.767,12.35-18   c2.4-7.267,2.417-13.633,0.05-19.1C8.267,19.884,4.233,16.85-1.5,16.35C-5.933,15.917-10.383,17.05-14.85,19.75z M112.75,32.05   c1.6-0.2,3.416-0.333,5.45-0.399c0.667-0.034,3.033-0.051,7.1-0.051c1.467,0,3.15,0.017,5.05,0.051c2.066,0,3.834,0,5.301,0   L127.2,54.05h-11.5l0.45-0.95c0.333-0.767,0.684-1.583,1.05-2.449c-0.034,0.033-0.05,0.066-0.05,0.1   c-2.434,2.1-5.317,3.184-8.65,3.25c-1.533,0.066-2.767-0.017-3.7-0.25c-1.367-0.3-2.5-0.917-3.4-1.85   c-1.5-1.534-1.95-3.65-1.35-6.351c0.767-3.967,2.217-7.066,4.35-9.3C106.6,33.95,109.383,32.55,112.75,32.05z M99.7,32.1   c0.867,0.233,1.233,1.134,1.1,2.7c-0.1,1.101-0.45,2.283-1.05,3.55c-2.267-0.6-4.283-0.733-6.05-0.399   c-1.767,0.366-3.317,0.95-4.65,1.75c-0.933,0.533-1.733,1.3-2.4,2.3c-0.566,0.866-1.35,2.8-2.35,5.8   c-0.733,2.233-1.417,4.3-2.05,6.2H78.1c-4.233,0.1-7.217,1.6-8.95,4.5l5.5-16.2c0.567-1.533,1.434-4.217,2.6-8.05   c0.233-0.767,0.5-1.65,0.8-2.65c5.1,0,9.45,0.017,13.05,0.051h0.5c0.167,0,0.333,0,0.5,0h0.1c1.3,0.033,3.1,0.083,5.4,0.149   C98.3,31.833,99,31.934,99.7,32.1z M121.4,36.8c-0.234,0-0.417,0-0.551,0c-1.899,0.033-3.699,0.5-5.399,1.4   c-1.5,0.767-2.6,1.833-3.3,3.2c-0.633,1.166-0.967,2.517-1,4.05c0.1,1.7,0.867,2.8,2.3,3.3c1.566,0.366,3.167-0.35,4.8-2.15   c2.1-2.5,3.65-5.733,4.65-9.699C122.367,36.866,121.867,36.833,121.4,36.8z M149.55,31.65v14.1c0.034-0.033,0.101-0.083,0.2-0.15   c0.133-0.1,4.017-4.783,11.65-14.05c3.232,0,7.633,0,13.199,0c-2.467,2.4-9.533,9.851-21.199,22.351   c-7.667,0.066-12.301,0.1-13.9,0.1l-1.8-22.35H149.55z M51.2,32.1c1.267-0.166,2.733-0.3,4.4-0.399   c0.7-0.033,2.183-0.084,4.45-0.15c1.8-0.066,4.833-0.066,9.1,0c0.3,0,2.217,0.017,5.75,0.05c-1.867,5.567-3.467,10.434-4.8,14.601   c-1.133,3.566-2.117,6.517-2.95,8.85c-0.133,0.4-0.3,0.8-0.5,1.2c-0.8,1.833-1.75,3.384-2.85,4.65   c-6.2,6.933-15.216,7.149-27.05,0.649h0.15c8.733,2.634,14.4,1.566,17-3.2c0.333-0.767,0.667-1.533,1-2.3   c0.733-1.8,1.317-3.6,1.75-5.399c-0.566,0.366-1.533,0.899-2.9,1.6c-0.467,0.233-0.933,0.45-1.4,0.65   c-2.467,1.033-4.883,1.399-7.25,1.1c-1-0.1-1.817-0.233-2.45-0.4c-0.833-0.233-1.6-0.583-2.3-1.05   c-0.967-0.666-1.65-1.533-2.05-2.6c-0.333-1.033-0.417-2.184-0.25-3.45c0.567-3.9,1.967-7.083,4.2-9.55   C44.75,34.217,47.733,32.6,51.2,32.1z M59.45,36.8c-0.2,0-0.4,0-0.6,0c-1.867,0.033-3.65,0.5-5.35,1.4   c-1.433,0.767-2.5,1.833-3.2,3.2c-0.633,1.166-0.966,2.517-1,4.05c0.1,1.7,0.867,2.8,2.3,3.3c1.533,0.366,3.117-0.35,4.75-2.15   c2.066-2.5,3.6-5.733,4.6-9.699C60.45,36.866,59.95,36.833,59.45,36.8z"
       id="path5"
       style="fill:#192d50;fill-opacity:1" /></g></svg>